<svg width="314" height="100" viewBox="0 0 314 100" fill="none" xmlns="http://www.w3.org/2000/svg">
<g clip-path="url(#clip0_2733_99)">
<g clip-path="url(#clip1_2733_99)">
<path d="M86 19L50 80.2" stroke="url(#paint0_linear_2733_99)" stroke-width="5" stroke-linecap="round" stroke-linejoin="round"/>
<path d="M50 80.2L32 49.6L14 19" stroke="url(#paint1_linear_2733_99)" stroke-width="5" stroke-linecap="round" stroke-linejoin="round"/>
<path d="M86 19L68 80.2L50 33.4" stroke="url(#paint2_linear_2733_99)" stroke-width="5" stroke-linecap="round" stroke-linejoin="round"/>
<path d="M50 33.4L32 80.2L14 19" stroke="url(#paint3_linear_2733_99)" stroke-width="5" stroke-linecap="round" stroke-linejoin="round"/>
<path d="M147.192 39.312L137.616 70H132.352L124.96 45.64L117.568 70H112.304L102.672 39.312H107.88L114.936 65.072L122.552 39.312H127.76L135.208 65.128L142.152 39.312H147.192ZM180.25 53.48C180.25 54.4507 180.194 55.4773 180.082 56.56H155.554C155.74 59.584 156.767 61.9547 158.634 63.672C160.538 65.352 162.834 66.192 165.522 66.192C167.724 66.192 169.554 65.688 171.01 64.68C172.503 63.6347 173.548 62.2533 174.146 60.536H179.634C178.812 63.4853 177.17 65.8933 174.706 67.76C172.242 69.5893 169.18 70.504 165.522 70.504C162.61 70.504 159.996 69.8507 157.682 68.544C155.404 67.2373 153.612 65.3893 152.306 63C150.999 60.5733 150.346 57.7733 150.346 54.6C150.346 51.4267 150.98 48.6453 152.25 46.256C153.519 43.8667 155.292 42.0373 157.57 40.768C159.884 39.4613 162.535 38.808 165.522 38.808C168.434 38.808 171.01 39.4427 173.25 40.712C175.49 41.9813 177.207 43.736 178.402 45.976C179.634 48.1787 180.25 50.68 180.25 53.48ZM174.986 52.416C174.986 50.4747 174.556 48.8133 173.698 47.432C172.839 46.0133 171.663 44.9493 170.17 44.24C168.714 43.4933 167.09 43.12 165.298 43.12C162.722 43.12 160.519 43.9413 158.69 45.584C156.898 47.2267 155.871 49.504 155.61 52.416H174.986ZM185.072 54.544C185.072 51.408 185.707 48.664 186.976 46.312C188.245 43.9227 189.981 42.0747 192.184 40.768C194.424 39.4613 196.907 38.808 199.632 38.808C202.32 38.808 204.653 39.3867 206.632 40.544C208.611 41.7013 210.085 43.1573 211.056 44.912V39.312H216.208V70H211.056V64.288C210.048 66.08 208.536 67.5733 206.52 68.768C204.541 69.9253 202.227 70.504 199.576 70.504C196.851 70.504 194.387 69.832 192.184 68.488C189.981 67.144 188.245 65.2587 186.976 62.832C185.707 60.4053 185.072 57.6427 185.072 54.544ZM211.056 54.6C211.056 52.2853 210.589 50.2693 209.656 48.552C208.723 46.8347 207.453 45.528 205.848 44.632C204.28 43.6987 202.544 43.232 200.64 43.232C198.736 43.232 197 43.68 195.432 44.576C193.864 45.472 192.613 46.7787 191.68 48.496C190.747 50.2133 190.28 52.2293 190.28 54.544C190.28 56.896 190.747 58.9493 191.68 60.704C192.613 62.4213 193.864 63.7467 195.432 64.68C197 65.576 198.736 66.024 200.64 66.024C202.544 66.024 204.28 65.576 205.848 64.68C207.453 63.7467 208.723 62.4213 209.656 60.704C210.589 58.9493 211.056 56.9147 211.056 54.6ZM236.244 65.296L245.764 39.312H251.196L239.156 70H233.22L221.18 39.312H226.668L236.244 65.296ZM284.21 53.48C284.21 54.4507 284.154 55.4773 284.042 56.56H259.514C259.701 59.584 260.728 61.9547 262.594 63.672C264.498 65.352 266.794 66.192 269.482 66.192C271.685 66.192 273.514 65.688 274.97 64.68C276.464 63.6347 277.509 62.2533 278.106 60.536H283.594C282.773 63.4853 281.13 65.8933 278.666 67.76C276.202 69.5893 273.141 70.504 269.482 70.504C266.57 70.504 263.957 69.8507 261.642 68.544C259.365 67.2373 257.573 65.3893 256.266 63C254.96 60.5733 254.306 57.7733 254.306 54.6C254.306 51.4267 254.941 48.6453 256.21 46.256C257.48 43.8667 259.253 42.0373 261.53 40.768C263.845 39.4613 266.496 38.808 269.482 38.808C272.394 38.808 274.97 39.4427 277.21 40.712C279.45 41.9813 281.168 43.736 282.362 45.976C283.594 48.1787 284.21 50.68 284.21 53.48ZM278.946 52.416C278.946 50.4747 278.517 48.8133 277.658 47.432C276.8 46.0133 275.624 44.9493 274.13 44.24C272.674 43.4933 271.05 43.12 269.258 43.12C266.682 43.12 264.48 43.9413 262.65 45.584C260.858 47.2267 259.832 49.504 259.57 52.416H278.946ZM296.033 28.56V70H290.937V28.56H296.033Z" fill="#F8FAFC"/>
</g>
</g>
<defs>
<linearGradient id="paint0_linear_2733_99" x1="50" y1="19" x2="89" y2="19.0418" gradientUnits="userSpaceOnUse">
<stop stop-color="#864DF8"/>
<stop offset="1" stop-color="#6F00FF"/>
</linearGradient>
<linearGradient id="paint1_linear_2733_99" x1="51.8" y1="19" x2="14" y2="18.9595" gradientUnits="userSpaceOnUse">
<stop stop-color="#864DF8"/>
<stop offset="1" stop-color="#8075FF"/>
</linearGradient>
<linearGradient id="paint2_linear_2733_99" x1="83" y1="19" x2="53.6" y2="18.9685" gradientUnits="userSpaceOnUse">
<stop stop-color="#6F00FF"/>
<stop offset="1" stop-color="#F8F0FB"/>
</linearGradient>
<linearGradient id="paint3_linear_2733_99" x1="17.6" y1="19" x2="47" y2="19.0315" gradientUnits="userSpaceOnUse">
<stop stop-color="#8075FF"/>
<stop offset="1" stop-color="#F8F0FB"/>
</linearGradient>
<clipPath id="clip0_2733_99">
<rect width="314" height="100" fill="white"/>
</clipPath>
<clipPath id="clip1_2733_99">
<rect width="314" height="100" fill="white"/>
</clipPath>
</defs>
</svg>
